<svg height="2304pt" preserveAspectRatio="xMidYMid meet" viewBox="0 0 2304 2304" width="2304pt" xmlns="http://www.w3.org/2000/svg"><g transform="matrix(.1 0 0 -.1 0 2304)"><path d="m12979 17726c-94-33-164-102-198-194-11-31-859-2955-1883-6497-1844-6381-1862-6441-1862-6530-1-75 3-97 22-133 35-65 88-119 146-146 28-13 202-66 386-116 301-82 342-91 401-87 120 8 225 88 268 205 11 31 859 2955 1883 6497 1844 6381 1862 6441 1862 6530 1 75-3 97-22 133-35 65-88 119-146 146-28 13-202 65-385 115-346 94-400 103-472 77z"/><path d="m7280 15857c-26-7-62-23-80-34-19-12-1104-1092-2411-2400-2632-2633-2414-2404-2414-2543s-218 91 2419-2548 2424-2437 2566-2437c128 0 141 10 486 357 335 337 339 343 339 468 0 139 177-49-2034 2162l-1996 1998 1996 1998c2211 2211 2034 2023 2034 2162 0 125-4 131-339 468-226 228-313 309-351 327-61 30-153 40-215 22z"/><path d="m15600 15857c-26-7-62-23-80-34-19-12-168-156-331-320-329-331-334-338-334-463 0-139-177 49 2034-2162l1996-1998-1996-1997c-2211-2212-2034-2024-2034-2163 0-125 4-131 339-468 345-347 358-357 486-357 142 0-71-202 2566 2437s2419 2409 2419 2548 218-91-2419 2548c-1906 1908-2391 2388-2431 2407-61 30-153 40-215 22z"/></g></svg>