<?xml version="1.0" standalone="no"?>
<!DOCTYPE svg PUBLIC "-//W3C//DTD SVG 20010904//EN"
 "http://www.w3.org/TR/2001/REC-SVG-20010904/DTD/svg10.dtd">
<svg version="1.0" xmlns="http://www.w3.org/2000/svg"
 width="2304.000000pt" height="2304.000000pt" viewBox="0 0 2304.000000 2304.000000"
 preserveAspectRatio="xMidYMid meet">
<metadata>
Created by potrace 1.11, written by Peter Selinger 2001-2013
</metadata>
<g transform="translate(0.000000,2304.000000) scale(0.100000,-0.100000)"
fill="#000000" stroke="none">
<path d="M12979 17726 c-94 -33 -164 -102 -198 -194 -11 -31 -859 -2955 -1883
-6497 -1844 -6381 -1862 -6441 -1862 -6530 -1 -75 3 -97 22 -133 35 -65 88
-119 146 -146 28 -13 202 -66 386 -116 301 -82 342 -91 401 -87 120 8 225 88
268 205 11 31 859 2955 1883 6497 1844 6381 1862 6441 1862 6530 1 75 -3 97
-22 133 -35 65 -88 119 -146 146 -28 13 -202 65 -385 115 -346 94 -400 103
-472 77z"/>
<path d="M7280 15857 c-26 -7 -62 -23 -80 -34 -19 -12 -1104 -1092 -2411
-2400 -2632 -2633 -2414 -2404 -2414 -2543 0 -139 -218 91 2419 -2548 2637
-2639 2424 -2437 2566 -2437 128 0 141 10 486 357 335 337 339 343 339 468 0
139 177 -49 -2034 2162 l-1996 1998 1996 1998 c2211 2211 2034 2023 2034 2162
0 125 -4 131 -339 468 -226 228 -313 309 -351 327 -61 30 -153 40 -215 22z"/>
<path d="M15600 15857 c-26 -7 -62 -23 -80 -34 -19 -12 -168 -156 -331 -320
-329 -331 -334 -338 -334 -463 0 -139 -177 49 2034 -2162 l1996 -1998 -1996
-1997 c-2211 -2212 -2034 -2024 -2034 -2163 0 -125 4 -131 339 -468 345 -347
358 -357 486 -357 142 0 -71 -202 2566 2437 2637 2639 2419 2409 2419 2548 0
139 218 -91 -2419 2548 -1906 1908 -2391 2388 -2431 2407 -61 30 -153 40 -215
22z"/>
</g>
</svg>
