<?xml version="1.0" standalone="no"?>
<!DOCTYPE svg PUBLIC "-//W3C//DTD SVG 20010904//EN"
 "http://www.w3.org/TR/2001/REC-SVG-20010904/DTD/svg10.dtd">
<svg version="1.0" xmlns="http://www.w3.org/2000/svg"
 width="2304.000000pt" height="2304.000000pt" viewBox="0 0 2304.000000 2304.000000"
 preserveAspectRatio="xMidYMid meet">
<metadata>
Created by potrace 1.11, written by Peter Selinger 2001-2013
</metadata>
<g transform="translate(0.000000,2304.000000) scale(0.100000,-0.100000)"
fill="#000000" stroke="none">
<path d="M13002 17734 c-84 -22 -168 -88 -207 -163 -18 -37 -50 -143 -339
-1146 -63 -220 -129 -447 -146 -505 -17 -58 -40 -139 -51 -180 -11 -41 -22
-77 -24 -80 -2 -3 -13 -39 -24 -80 -11 -41 -36 -129 -55 -195 -19 -66 -60
-208 -91 -315 -32 -107 -61 -208 -65 -225 -4 -16 -34 -118 -65 -225 -31 -107
-58 -202 -60 -210 -2 -8 -47 -163 -100 -345 -53 -181 -125 -429 -159 -550 -35
-121 -114 -393 -176 -605 -61 -212 -113 -394 -115 -405 -3 -11 -16 -56 -30
-100 -13 -44 -68 -231 -121 -415 -52 -184 -116 -405 -141 -490 -24 -85 -60
-209 -79 -275 -20 -66 -46 -158 -60 -205 -29 -98 -55 -190 -58 -205 -1 -5 -10
-35 -19 -65 -10 -30 -42 -143 -73 -250 -81 -282 -134 -465 -207 -720 -64 -220
-134 -461 -263 -907 -35 -123 -94 -325 -130 -450 -36 -126 -74 -257 -84 -293
-10 -36 -59 -204 -108 -375 -50 -170 -129 -443 -175 -605 -147 -509 -217 -751
-252 -870 -38 -131 -276 -954 -310 -1075 -13 -44 -57 -197 -98 -340 -88 -305
-90 -314 -88 -382 3 -100 77 -210 174 -257 44 -22 202 -68 517 -153 253 -67
269 -69 355 -35 59 23 128 82 159 135 29 50 36 73 350 1162 63 220 129 447
146 505 17 58 40 139 51 180 11 41 22 77 24 80 2 3 13 39 24 80 11 41 38 138
60 215 23 77 62 212 87 300 25 88 49 171 54 185 9 26 19 60 74 255 19 66 47
161 61 210 15 50 33 113 40 140 15 56 105 366 134 465 17 55 28 94 47 165 2 6
30 102 63 215 32 113 102 354 154 535 53 182 117 402 142 490 123 423 186 641
190 655 1 9 42 148 89 310 118 407 536 1852 541 1870 2 8 18 65 35 125 18 61
38 130 45 155 7 25 47 164 89 310 43 146 102 348 131 450 29 102 90 311 134
465 45 154 83 287 86 295 10 39 208 726 485 1680 51 173 100 344 110 380 9 36
57 200 105 365 162 558 177 610 201 700 46 169 30 258 -66 355 -63 64 -101 82
-285 130 -66 17 -131 35 -145 40 -60 21 -373 102 -403 104 -17 2 -56 -3 -85
-10z"/>
<path d="M7275 15857 c-22 -8 -55 -21 -73 -31 -18 -9 -1100 -1084 -2404 -2388
-2638 -2638 -2423 -2411 -2423 -2558 0 -147 -215 80 2425 -2560 2640 -2640
2413 -2425 2560 -2425 131 0 145 10 480 346 335 335 345 348 345 479 0 146
172 -38 -2039 2174 l-1986 1986 1986 1986 c2211 2212 2039 2028 2039 2174 0
131 -10 145 -345 480 -241 240 -303 297 -348 318 -65 29 -160 38 -217 19z"/>
<path d="M15567 15846 c-71 -29 -70 -28 -392 -352 -286 -286 -309 -316 -322
-422 -7 -65 13 -146 50 -201 16 -24 918 -932 2003 -2017 l1974 -1974 -1986
-1986 c-2145 -2146 -2026 -2020 -2041 -2142 -7 -65 13 -146 50 -201 16 -24
156 -170 310 -324 321 -321 337 -332 467 -332 147 0 -80 -215 2560 2425 2640
2640 2425 2413 2425 2560 0 147 215 -80 -2425 2560 -2619 2619 -2413 2423
-2550 2427 -49 1 -80 -4 -123 -21z"/>
</g>
</svg>
